<svg xmlns="http://www.w3.org/2000/svg" width="1024" height="1024" viewBox="0 0 1024 1024" version="1.1"><path d="M 591.500 458.639 C 581.410 460.117, 570.288 462.534, 559.658 465.559 C 546.908 469.187, 529.713 475.047, 530.248 475.582 C 530.420 475.754, 534.373 474.783, 539.031 473.423 C 559.690 467.395, 591.862 463.983, 609.502 465.950 C 622.704 467.422, 630.077 469.424, 638.441 473.809 C 646.797 478.190, 650.879 482.084, 653.938 488.592 C 658.540 498.382, 657.512 510.084, 650.894 523.225 C 645.931 533.080, 642.429 537.710, 631.082 549.416 C 620.710 560.116, 620.629 560.235, 627 555.427 C 656.463 533.193, 671.161 511.423, 669.772 492.075 C 668.733 477.606, 659.502 467.584, 641.500 461.378 C 633.953 458.776, 632.397 458.608, 614 458.410 C 603.275 458.294, 593.150 458.397, 591.500 458.639 M 487.074 485.186 C 476.236 490.853, 476.171 506.308, 486.962 511.750 C 492.383 514.484, 495.208 514.543, 500.729 512.036 C 506.007 509.640, 508.991 504.989, 508.996 499.151 C 509.007 486.783, 497.743 479.607, 487.074 485.186 M 527.939 485.633 C 527.905 486.110, 527.881 491.675, 527.885 498 L 527.892 509.500 550.446 509.769 L 573 510.038 573 573.519 L 573 637 587.493 637 L 601.985 637 602.243 573.250 L 602.500 509.500 624.500 509.232 L 646.500 508.965 646.500 497.232 L 646.500 485.500 587.250 485.133 C 554.242 484.929, 527.973 485.151, 527.939 485.633 M 375.607 502.750 C 372.401 509.762, 360.869 535.525, 349.980 560 C 339.091 584.475, 326.991 611.407, 323.091 619.848 C 319.191 628.290, 316 635.377, 316 635.598 C 316 635.819, 322.926 636, 331.392 636 C 346.573 636, 346.791 635.969, 347.355 633.723 C 347.669 632.471, 353.837 617.733, 361.062 600.973 C 390.013 533.811, 393.162 526.548, 393.708 525.663 C 394.021 525.157, 394.722 525.540, 395.267 526.513 C 397.071 529.737, 419 581.255, 419 582.270 C 419 582.905, 413.123 583.127, 402.750 582.883 L 386.500 582.500 382.293 593 C 379.979 598.775, 378.066 604.288, 378.043 605.250 C 378.003 606.873, 379.907 607.001, 404.250 607.018 L 430.500 607.036 436.858 622.018 L 443.215 637 458.108 637 C 466.298 637, 473 636.656, 473 636.235 C 473 633.893, 438.958 558.564, 411.999 501.250 L 406.707 490 394.072 490 L 381.437 490 375.607 502.750 M 480.390 530.426 C 479.312 533.237, 480.639 618.378, 481.817 621.913 C 483.757 627.736, 487.976 632.809, 492.862 635.193 C 498.356 637.875, 509.984 638.820, 515.417 637.028 L 519 635.845 519 625.422 L 519 615 514.655 615 C 506.683 615, 507 616.858, 507 570.171 L 507 529 493.969 529 C 483.610 529, 480.825 529.292, 480.390 530.426 M 334 565.700 C 325.389 572.290, 315.470 581.834, 309.431 589.345 C 279.911 626.051, 288.229 653.671, 330.692 659.938 C 354.433 663.443, 389.640 657.969, 417.676 646.415 C 426.670 642.708, 429.488 641.160, 425 642.390 C 396.346 650.246, 383.608 652.333, 364 652.384 C 347.271 652.428, 337.600 650.670, 326.480 645.565 C 310.408 638.187, 303.967 627.236, 306.995 612.439 C 309.547 599.971, 318.831 584.500, 332.219 570.406 C 339.464 562.780, 340.135 561.006, 334 565.700" stroke="none" fill="#213446" fill-rule="evenodd"/><path d="M 0 512.001 L 0 1024.002 512.250 1023.751 L 1024.500 1023.500 1024.751 511.750 L 1025.002 0 512.501 0 L 0 0 0 512.001 M 0.496 512.500 C 0.496 794.100, 0.610 909.151, 0.750 768.168 C 0.890 627.186, 0.890 396.786, 0.750 256.168 C 0.610 115.551, 0.496 230.900, 0.496 512.500 M 591.500 458.639 C 581.410 460.117, 570.288 462.534, 559.658 465.559 C 546.908 469.187, 529.713 475.047, 530.248 475.582 C 530.420 475.754, 534.373 474.783, 539.031 473.423 C 559.690 467.395, 591.862 463.983, 609.502 465.950 C 622.704 467.422, 630.077 469.424, 638.441 473.809 C 646.797 478.190, 650.879 482.084, 653.938 488.592 C 658.540 498.382, 657.512 510.084, 650.894 523.225 C 645.931 533.080, 642.429 537.710, 631.082 549.416 C 620.710 560.116, 620.629 560.235, 627 555.427 C 656.463 533.193, 671.161 511.423, 669.772 492.075 C 668.733 477.606, 659.502 467.584, 641.500 461.378 C 633.953 458.776, 632.397 458.608, 614 458.410 C 603.275 458.294, 593.150 458.397, 591.500 458.639 M 487.074 485.186 C 476.236 490.853, 476.171 506.308, 486.962 511.750 C 492.383 514.484, 495.208 514.543, 500.729 512.036 C 506.007 509.640, 508.991 504.989, 508.996 499.151 C 509.007 486.783, 497.743 479.607, 487.074 485.186 M 527.939 485.633 C 527.905 486.110, 527.881 491.675, 527.885 498 L 527.892 509.500 550.446 509.769 L 573 510.038 573 573.519 L 573 637 587.493 637 L 601.985 637 602.243 573.250 L 602.500 509.500 624.500 509.232 L 646.500 508.965 646.500 497.232 L 646.500 485.500 587.250 485.133 C 554.242 484.929, 527.973 485.151, 527.939 485.633 M 375.607 502.750 C 372.401 509.762, 360.869 535.525, 349.980 560 C 339.091 584.475, 326.991 611.407, 323.091 619.848 C 319.191 628.290, 316 635.377, 316 635.598 C 316 635.819, 322.926 636, 331.392 636 C 346.573 636, 346.791 635.969, 347.355 633.723 C 347.669 632.471, 353.837 617.733, 361.062 600.973 C 390.013 533.811, 393.162 526.548, 393.708 525.663 C 394.021 525.157, 394.722 525.540, 395.267 526.513 C 397.071 529.737, 419 581.255, 419 582.270 C 419 582.905, 413.123 583.127, 402.750 582.883 L 386.500 582.500 382.293 593 C 379.979 598.775, 378.066 604.288, 378.043 605.250 C 378.003 606.873, 379.907 607.001, 404.250 607.018 L 430.500 607.036 436.858 622.018 L 443.215 637 458.108 637 C 466.298 637, 473 636.656, 473 636.235 C 473 633.893, 438.958 558.564, 411.999 501.250 L 406.707 490 394.072 490 L 381.437 490 375.607 502.750 M 480.390 530.426 C 479.312 533.237, 480.639 618.378, 481.817 621.913 C 483.757 627.736, 487.976 632.809, 492.862 635.193 C 498.356 637.875, 509.984 638.820, 515.417 637.028 L 519 635.845 519 625.422 L 519 615 514.655 615 C 506.683 615, 507 616.858, 507 570.171 L 507 529 493.969 529 C 483.610 529, 480.825 529.292, 480.390 530.426 M 334 565.700 C 325.389 572.290, 315.470 581.834, 309.431 589.345 C 279.911 626.051, 288.229 653.671, 330.692 659.938 C 354.433 663.443, 389.640 657.969, 417.676 646.415 C 426.670 642.708, 429.488 641.160, 425 642.390 C 396.346 650.246, 383.608 652.333, 364 652.384 C 347.271 652.428, 337.600 650.670, 326.480 645.565 C 310.408 638.187, 303.967 627.236, 306.995 612.439 C 309.547 599.971, 318.831 584.500, 332.219 570.406 C 339.464 562.780, 340.135 561.006, 334 565.700" stroke="none" fill="#f0f0f0" fill-rule="evenodd"/></svg>